<mxfile host="app.diagrams.net" modified="2024-04-03T09:01:55.816Z" agent="Mozilla/5.0 (Macintosh; Intel Mac OS X 10_15_7) AppleWebKit/537.36 (KHTML, like Gecko) Chrome/123.0.0.0 Safari/537.36" version="24.2.1" etag="UMo_CLegOkKwmHxMuLab" type="github">
  <diagram name="페이지-1" id="rmBRi51MObke-qs8ZnVJ">
    <mxGraphModel>
      <root>
        <mxCell id="0" />
        <mxCell id="1" parent="0" />
      </root>
    </mxGraphModel>
  </diagram>
</mxfile>
